<svg width="91" height="53" viewBox="0 0 91 53" fill="none" xmlns="http://www.w3.org/2000/svg">
    <g clip-path="url(#clip0_16_48)">
        <path d="M15.1933 0.0528564H0V35.7327H9.46031V26.2533H15.3708C22.5237 26.2533 28.4519 20.3507 28.4519 13.1619C28.4519 5.93783 22.4882 0.0528564 15.1933 0.0528564ZM15.3353 18.1659H9.47806V7.94647H15.3353C18.2106 7.94647 20.518 10.237 20.518 13.0914C20.518 15.9458 18.2106 18.1659 15.3353 18.1659Z" fill="#3D66BC"/>
        <path d="M55.9454 7.80552V0.0528564H33.5459V35.7327H55.9454V28.0681H43.024V21.496H54.4722V13.6024H43.024V7.7879H55.9454V7.80552Z" fill="#3D66BC"/>
        <path d="M61.9448 0V9.32081H71.3164V35.7327H80.7944V9.32081H90.3612V0H61.9448Z" fill="#3D66BC"/>
        <path d="M5.92822 29.8477C6.79793 29.513 7.98713 29.0372 9.46031 28.6672V35.7327H0V33.0545C1.47318 31.9973 3.44334 30.8168 5.92822 29.8477Z" fill="#2F7AC5"/>
        <path d="M43.024 28.0682H55.9454V35.7327H33.5459V29.4954C35.658 28.7906 37.4862 27.6629 38.3382 25.9186C39.5096 23.5223 37.8412 21.9717 39.2256 20.0336C41.533 16.7916 48.5085 17.8664 49.8041 18.0778C51.6678 18.3597 53.1942 18.8531 54.4544 19.3288V21.496H43.0062V28.0682H43.024Z" fill="#2F7AC5"/>
        <path d="M90.3611 0V9.32081H80.7943V35.7327H71.3162V9.32081H62.0156C63.1161 7.50598 64.7135 5.83211 66.7724 4.96875C70.269 3.4887 72.6296 5.35638 74.2626 3.66489C75.221 2.67819 75.079 1.39195 74.8305 0.0176197H90.3611V0Z" fill="#2F7AC5"/>
        <path d="M7.68517 47.6084C7.63192 47.5555 7.57867 47.5203 7.50768 47.5203C7.43668 47.5203 7.36568 47.5555 7.33018 47.5908L7.11719 47.8022C6.53147 48.3836 5.71501 48.736 4.8808 48.736C3.14138 48.736 1.72145 47.3441 1.72145 45.6174C1.72145 43.8906 3.14138 42.4987 4.8808 42.4987C5.71501 42.4987 6.49597 42.8158 7.09944 43.3973L7.29469 43.5911C7.34793 43.644 7.40118 43.6616 7.47218 43.6616C7.54317 43.6616 7.59642 43.644 7.64967 43.5911L8.19989 43.0801C8.25314 43.0273 8.28864 42.9744 8.28864 42.9039C8.28864 42.8335 8.27089 42.763 8.21764 42.7277L8.00465 42.5163C7.17044 41.7058 6.06999 41.2477 4.89855 41.2477C2.46691 41.2477 0.479004 43.2211 0.479004 45.635C0.479004 48.0489 2.46691 50.0223 4.89855 50.0223C6.08774 50.0223 7.20594 49.5642 8.04015 48.736L8.23539 48.5422C8.32414 48.4541 8.34189 48.2956 8.23539 48.1898L7.68517 47.6084Z" fill="#3D66BC"/>
        <path d="M14.128 41.2477C11.6964 41.2477 9.7085 43.2211 9.7085 45.635C9.7085 48.0489 11.6964 50.0223 14.128 50.0223C16.5774 50.0223 18.5653 48.0489 18.5653 45.635C18.5653 43.2035 16.5774 41.2477 14.128 41.2477ZM17.2874 45.6174C17.2874 47.3441 15.8675 48.736 14.128 48.736C12.3531 48.736 10.9687 47.3617 10.9687 45.6174C10.9687 43.873 12.3531 42.4987 14.128 42.4987C15.8675 42.4987 17.2874 43.9083 17.2874 45.6174Z" fill="#3D66BC"/>
        <path d="M29.3038 41.2477H29.1086H28.9134H28.6294C28.5584 41.2477 28.5051 41.2829 28.4519 41.3182L24.9375 44.7892L21.441 41.3182C21.3877 41.2653 21.3345 41.2477 21.2635 41.2477H20.9795H20.7842H20.5712C20.4292 41.2477 20.3228 41.3534 20.3228 41.4944V49.7404C20.3228 49.8813 20.4292 49.987 20.5712 49.987H21.3345C21.4764 49.987 21.5829 49.8813 21.5829 49.7404V43.2387L24.76 46.375C24.8133 46.4279 24.8665 46.4455 24.9375 46.4455C25.0085 46.4455 25.0618 46.4279 25.115 46.375L28.2921 43.2387V49.7404C28.2921 49.8813 28.3986 49.987 28.5406 49.987H29.3038C29.4458 49.987 29.5523 49.8813 29.5523 49.7404V41.4944C29.5701 41.3534 29.4458 41.2477 29.3038 41.2477Z" fill="#3D66BC"/>
        <path d="M34.6818 41.2477H31.7709C31.629 41.2477 31.5225 41.3534 31.5225 41.4944V49.758C31.5225 49.8989 31.629 50.0047 31.7709 50.0047H32.5342C32.6762 50.0047 32.7827 49.8989 32.7827 49.758V46.8507H34.6641C36.226 46.8507 37.5039 45.5997 37.5039 44.0492C37.5217 42.4987 36.2615 41.2477 34.6818 41.2477ZM36.2437 44.0492C36.2437 44.895 35.5515 45.5821 34.6996 45.5821H32.8181V42.4987H34.6818C35.5338 42.4987 36.2437 43.2035 36.2437 44.0492Z" fill="#3D66BC"/>
        <path d="M45.7925 41.2477H45.0293C44.8873 41.2477 44.7808 41.3534 44.7808 41.4944V46.4455C44.7808 47.6965 43.7336 48.736 42.4379 48.736C41.1599 48.736 40.1127 47.7141 40.1127 46.4455V41.512C40.1127 41.371 40.0062 41.2653 39.8642 41.2653H39.101C38.959 41.2653 38.8525 41.371 38.8525 41.512V46.4455C38.8525 48.4189 40.4677 50.0223 42.4556 50.0223C44.4435 50.0223 46.0765 48.4189 46.0765 46.4455V41.512C46.041 41.3534 45.9167 41.2477 45.7925 41.2477Z" fill="#3D66BC"/>
        <path d="M54.4186 41.2477H47.7094C47.5674 41.2477 47.4609 41.3534 47.4609 41.4944V42.252C47.4609 42.393 47.5674 42.4987 47.7094 42.4987H50.4251V49.7404C50.4251 49.8813 50.5315 49.987 50.6735 49.987H51.4368C51.5787 49.987 51.6852 49.8813 51.6852 49.7404V42.4987H54.4009C54.5429 42.4987 54.6494 42.393 54.6494 42.252V41.4944C54.6671 41.3534 54.5606 41.2477 54.4186 41.2477Z" fill="#3D66BC"/>
        <path d="M59.8853 41.3886C59.8498 41.3005 59.761 41.2477 59.6545 41.2477H59.4415H59.2996H59.0688C58.9623 41.2477 58.8736 41.3005 58.8381 41.3886L54.951 49.6523C54.9155 49.7227 54.9155 49.8285 54.9688 49.8989C55.022 49.9694 55.093 50.0223 55.1817 50.0223H56.0337C56.1402 50.0223 56.2289 49.9694 56.2644 49.8813L57.3649 47.5555H61.394L62.5122 49.8813C62.5477 49.9694 62.6364 50.0223 62.7429 50.0223H63.5949C63.6836 50.0223 63.7723 49.9694 63.8078 49.8989C63.8611 49.8285 63.8611 49.7404 63.8256 49.6523L59.8853 41.3886ZM60.7727 46.2693H57.9684L59.3706 43.2739L60.7727 46.2693Z" fill="#3D66BC"/>
        <path d="M71.4757 47.6084C71.4224 47.5555 71.3692 47.5203 71.2982 47.5203C71.2272 47.5203 71.1562 47.5555 71.1207 47.5908L70.9077 47.8022C70.322 48.4013 69.5055 48.736 68.6713 48.736C66.9319 48.736 65.512 47.3441 65.512 45.6174C65.512 43.8906 66.9319 42.4987 68.6713 42.4987C69.5055 42.4987 70.2865 42.8158 70.89 43.3973L71.0852 43.5911C71.1385 43.644 71.1917 43.6616 71.2627 43.6616C71.3337 43.6616 71.3869 43.644 71.4402 43.5911L71.9904 43.0801C72.0437 43.0273 72.0792 42.9744 72.0792 42.9039C72.0792 42.8335 72.0614 42.763 72.0082 42.7277L71.7952 42.5163C70.961 41.7058 69.8605 41.2477 68.6891 41.2477C66.2574 41.2477 64.2695 43.2211 64.2695 45.635C64.2695 47.6965 65.725 49.4232 67.6596 49.8813L67.5531 50.4628C67.5354 50.5333 67.5531 50.6037 67.6064 50.6742C67.6596 50.7271 67.7306 50.7623 67.8016 50.7623H68.8666C69.0796 50.7623 69.2393 50.8328 69.3635 50.9385C69.47 51.0442 69.5055 51.1852 69.4878 51.3614C69.4168 51.749 68.9553 52.0838 68.4938 52.0838C68.2808 52.0838 68.1211 52.0133 67.9969 51.9076C67.8904 51.8019 67.8549 51.6609 67.8726 51.4847L67.8904 51.3438C67.8904 51.3261 67.8904 51.3085 67.8904 51.2733C67.8904 51.1323 67.7839 51.0266 67.6419 51.0266H67.1804C67.0561 51.0266 66.9497 51.1147 66.9319 51.238L66.9142 51.3614C66.8254 51.8019 66.9674 52.2247 67.2691 52.5243C67.5709 52.8238 67.9791 52.9824 68.4583 52.9824C69.399 52.9824 70.2865 52.3128 70.4285 51.4847C70.5172 51.0442 70.3752 50.6214 70.0735 50.3218C69.896 50.1456 69.683 50.0223 69.4168 49.9342C70.322 49.7756 71.1562 49.3704 71.8129 48.7184L72.0082 48.5246C72.0969 48.4365 72.1147 48.2779 72.0082 48.1722L71.4757 47.6084Z" fill="#3D66BC"/>
        <path d="M77.7411 41.3886C77.7056 41.3005 77.6168 41.2477 77.5103 41.2477H76.9424C76.8359 41.2477 76.7471 41.3005 76.7116 41.3886L72.8245 49.6523C72.789 49.7227 72.789 49.8285 72.8423 49.8989C72.8955 49.9694 72.9665 50.0223 73.0553 50.0223H73.9072C74.0137 50.0223 74.1025 49.9694 74.138 49.8813L75.2384 47.5555H79.2675L80.3857 49.8813C80.4212 49.9694 80.5099 50.0223 80.6164 50.0223H81.4684C81.5571 50.0223 81.6459 49.9694 81.6814 49.8989C81.7346 49.8285 81.7346 49.7404 81.6991 49.6523L77.7411 41.3886ZM78.6285 46.2693H75.8242L77.2263 43.2739L78.6285 46.2693Z" fill="#3D66BC"/>
        <path d="M86.5626 41.2477C84.131 41.2477 82.1431 43.2211 82.1431 45.635C82.1431 48.0489 84.131 50.0223 86.5626 50.0223C89.012 50.0223 90.9999 48.0489 90.9999 45.635C90.9999 43.2035 89.012 41.2477 86.5626 41.2477ZM89.722 45.6174C89.722 47.3441 88.302 48.736 86.5626 48.736C84.7877 48.736 83.4033 47.3617 83.4033 45.6174C83.4033 43.873 84.7877 42.4987 86.5626 42.4987C88.302 42.4987 89.722 43.9083 89.722 45.6174Z" fill="#3D66BC"/>
        <path d="M74.6349 40.631L75.1141 40.8953C75.1496 40.9129 75.2028 40.9305 75.2383 40.9305C75.2561 40.9305 75.2916 40.9305 75.3093 40.9129C75.3803 40.8953 75.4336 40.8424 75.4691 40.7896L75.5401 40.6662C75.7708 40.1905 75.966 40.1905 76.0548 40.1905C76.2145 40.1905 76.4275 40.3667 76.6583 40.5429C77.0132 40.8248 77.457 41.1772 78.0249 41.1772C78.6107 41.1772 79.1786 40.7896 79.4981 40.12L79.5514 40.0143C79.6046 39.891 79.5691 39.75 79.4626 39.6795L78.9834 39.38C78.9479 39.3624 78.8947 39.3447 78.8414 39.3447C78.8237 39.3447 78.7882 39.3447 78.7704 39.3624C78.6994 39.38 78.6462 39.4328 78.6107 39.4857L78.5397 39.6267C78.3089 40.1024 78.1137 40.1024 78.0249 40.1024C77.8652 40.1024 77.6522 39.9262 77.4215 39.75C77.0665 39.4681 76.6228 39.1157 76.0548 39.1157C75.4513 39.1157 74.9011 39.5209 74.5639 40.1905L74.5106 40.3138C74.4751 40.4195 74.5106 40.5605 74.6349 40.631Z" fill="#3D66BC"/>
    </g>
    <defs>
        <clipPath id="clip0_16_48">
        <rect width="91" height="53" fill="white"/>
        </clipPath>
    </defs>
</svg>
